<svg viewBox="0 0 24 10" version="1.1" xmlns="http://www.w3.org/2000/svg" xmlns:xlink="http://www.w3.org/1999/xlink" xml:space="preserve" xmlns:serif="http://www.serif.com/" style="fill-rule:evenodd;clip-rule:evenodd;stroke-linejoin:round;stroke-miterlimit:2;">
    <g transform="matrix(1.2,0,0,1.2,-2.4,-9.6)">
        <path d="M22,15.25C22,14.836 21.664,14.5 21.25,14.5L2.75,14.5C2.336,14.5 2,14.836 2,15.25C2,15.664 2.336,16 2.75,16L21.25,16C21.664,16 22,15.664 22,15.25ZM22,8.75C22,8.336 21.664,8 21.25,8L2.75,8C2.336,8 2,8.336 2,8.75C2,9.164 2.336,9.5 2.75,9.5L21.25,9.5C21.664,9.5 22,9.164 22,8.75Z" style="fill-rule:nonzero;"/>
    </g>
</svg>
